<mxfile host="app.diagrams.net" modified="2024-05-24T05:41:18.585Z" agent="Mozilla/5.0 (Windows NT 10.0; Win64; x64) AppleWebKit/537.36 (KHTML, like Gecko) Chrome/125.0.0.0 Safari/537.36" version="24.4.7" etag="coX1WPBSxeq_8JTcHEpe" type="github">
  <diagram name="Страница — 1" id="HlB4CG9gVXyliM_NJqTG">
    <mxGraphModel>
      <root>
        <mxCell id="0" />
        <mxCell id="1" parent="0" />
      </root>
    </mxGraphModel>
  </diagram>
</mxfile>
